<svg xmlns="http://www.w3.org/2000/svg" xmlns:xlink="http://www.w3.org/1999/xlink" fill="white" version="1.1" x="0px" y="0px" viewBox="0 0 100 100" enable-background="new 0 0 100 100" xml:space="preserve"><g><polygon points="21.4,61.9 15.9,82.5 36.4,76.9  "/><rect x="23.1" y="38.6" transform="matrix(0.7071 -0.7071 0.7071 0.7071 -20.4555 49.1244)" width="52" height="21.3"/><path d="M82.3,31c3-3,3-7.7,0-10.7L78,16c-3-3-7.7-3-10.7,0l-5.6,5.6l15.1,15.1L82.3,31z"/><path d="M84.1,83.7H15.9c-0.7,0-1.3,0.6-1.3,1.3c0,0.7,0.6,1.3,1.3,1.3h68.3c0.7,0,1.3-0.6,1.3-1.3C85.4,84.3,84.8,83.7,84.1,83.7z   "/></g></svg>